<svg width="16" height="16" viewBox="0 0 16 16" fill="none" xmlns="http://www.w3.org/2000/svg">
<path d="M7.23833 1.34111C6.78315 1.79592 6.78315 2.53644 7.23833 2.99125L11.084 6.83382L2.16713 6.83382C1.52521 6.83382 1 7.3586 1 8C1 8.6414 1.52521 9.16618 2.16713 9.16618L11.0782 9.16618L7.2325 13.0087C6.77732 13.4636 6.77732 14.2041 7.2325 14.6589C7.68768 15.1137 8.42881 15.1137 8.884 14.6589L14.6613 8.8863C14.8947 8.65306 15.0056 8.33819 14.9998 8.02915C14.9998 8.01749 14.9998 8.01166 14.9998 8C14.9998 7.98834 14.9998 7.98251 14.9998 7.97084C15.0056 7.66181 14.8947 7.35277 14.6613 7.1137L8.88399 1.34111C8.42881 0.886296 7.68768 0.886296 7.2325 1.34111L7.23833 1.34111Z" fill="black"/>
</svg>
