<svg xmlns="http://www.w3.org/2000/svg" xmlns:xlink="http://www.w3.org/1999/xlink" width="42" height="42" viewBox="0 0 42 42">
  <defs>
    <linearGradient id="linear-gradient" x1="-0.42" y1="-1.001" x2="0.5" y2="1" gradientUnits="objectBoundingBox">
      <stop offset="0" stop-color="#fff" stop-opacity="0"/>
      <stop offset="1" stop-color="#fff"/>
    </linearGradient>
  </defs>
  <g id="Group_3447" data-name="Group 3447" transform="translate(-1791.617 -24)">
    <rect id="Rectangle_2" data-name="Rectangle 2" width="42" height="42" rx="21" transform="translate(1791.617 24)" fill="#025ffe"/>
    <path id="Icon_ionic-ios-call" data-name="Icon ionic-ios-call" d="M22.494,19.018a15.572,15.572,0,0,0-3.253-2.177c-.975-.468-1.332-.458-2.022.039-.574.415-.946.8-1.607.656a9.587,9.587,0,0,1-3.229-2.389,9.518,9.518,0,0,1-2.389-3.229c-.14-.666.246-1.033.656-1.607.5-.69.512-1.047.039-2.022A15.264,15.264,0,0,0,8.512,5.036c-.709-.709-.869-.555-1.26-.415A7.168,7.168,0,0,0,6.1,5.234,3.48,3.48,0,0,0,4.714,6.7c-.275.594-.594,1.7,1.028,4.585a25.583,25.583,0,0,0,4.5,6h0l0,0,0,0h0a25.683,25.683,0,0,0,6,4.5c2.886,1.622,3.991,1.3,4.585,1.028A3.42,3.42,0,0,0,22.3,21.431a7.168,7.168,0,0,0,.613-1.153C23.049,19.887,23.208,19.727,22.494,19.018Z" transform="translate(1798.127 31.498)" fill="url(#linear-gradient)"/>
  </g>
</svg>
