<svg xmlns="http://www.w3.org/2000/svg" width="21.234" height="24.255" viewBox="0 0 21.234 24.255">
  <g id="Group_3" data-name="Group 3" transform="translate(-4459.753 -3163.517)">
    <path id="Path_1" data-name="Path 1" d="M4465.373,3166.364c.2-2.281.813-2.845,2.94-2.846q1.987,0,3.975,0c2.294,0,2.857.491,3.124,2.844,1.1,0,2.23-.031,3.353.008a2.053,2.053,0,0,1,2.2,2.271,2.2,2.2,0,0,1-.752,1.432,1.752,1.752,0,0,0-.751,1.592q-.547,6.931-1.138,13.859a2.217,2.217,0,0,1-2.421,2.235q-5.536.028-11.072,0a2.217,2.217,0,0,1-2.4-2.26c-.394-4.714-.764-9.429-1.18-14.141a1.754,1.754,0,0,0-.546-1.067,2.225,2.225,0,0,1-.86-2.42,2.144,2.144,0,0,1,2.083-1.5C4463.059,3166.334,4464.189,3166.364,4465.373,3166.364Zm-2.736,4.321c.407,4.942.813,9.748,1.188,14.556.067.853.474,1.116,1.282,1.11,3.374-.024,6.749-.009,10.124-.01,1.578,0,1.624-.049,1.752-1.618.247-3.017.5-6.032.749-9.049.134-1.651.253-3.3.382-4.989Zm7.715-1.485q4.02,0,8.041,0c.551,0,1.185.033,1.184-.721,0-.688-.6-.7-1.122-.7q-8.089,0-16.177,0c-.53,0-1.11.043-1.093.73s.593.692,1.126.691Q4466.33,3169.194,4470.352,3169.2Zm3.55-2.893c.041-1.187-.1-1.356-1.179-1.365q-2.357-.019-4.713,0c-1.055.01-1.215.214-1.118,1.364Z" fill="#707070"/>
    <path id="Path_2" data-name="Path 2" d="M4487.213,3192.466q0,2.6,0,5.207c0,.523-.011,1.115-.69,1.136-.755.024-.762-.6-.762-1.157q0-5.254,0-10.509c0-.523.011-1.115.69-1.136.755-.023.762.6.762,1.157Q4487.215,3189.815,4487.213,3192.466Z" transform="translate(-16.104 -13.926)" fill="#707070"/>
    <path id="Path_3" data-name="Path 3" d="M4476.439,3192.708q.163,2.5.328,4.99c.035.529.032,1.1-.641,1.156-.691.058-.767-.529-.8-1.045q-.328-5.321-.641-10.644c-.032-.534,0-1.138.667-1.086.267.021.663.617.7.981.187,1.877.277,3.763.4,5.646Z" transform="translate(-9.242 -13.969)" fill="#707070"/>
    <path id="Path_4" data-name="Path 4" d="M4496.886,3192.271c-.095,1.669-.186,3.34-.288,5.009a2.773,2.773,0,0,1-.149,1.019.925.925,0,0,1-.676.489c-.229-.02-.468-.342-.625-.582-.088-.133-.03-.369-.018-.557q.335-5.291.677-10.581c.034-.52.071-1.112.771-1.062s.657.642.626,1.162q-.149,2.552-.3,5.1Z" transform="translate(-21.888 -13.924)" fill="#707070"/>
  </g>
</svg>
